<?xml version="1.0" encoding="utf-8"?>
<!-- Generator: Adobe Illustrator 15.0.0, SVG Export Plug-In  -->
<!DOCTYPE svg PUBLIC "-//W3C//DTD SVG 1.1//EN" "http://www.w3.org/Graphics/SVG/1.1/DTD/svg11.dtd" [
	<!ENTITY ns_flows "http://ns.adobe.com/Flows/1.0/">
]>
<svg version="1.1"
	 xmlns="http://www.w3.org/2000/svg" xmlns:xlink="http://www.w3.org/1999/xlink" xmlns:a="http://ns.adobe.com/AdobeSVGViewerExtensions/3.0/"
	 x="0px" y="0px" width="254px" height="238px" viewBox="-0.972 -0.86 254 238"
	 overflow="visible" enable-background="new -0.972 -0.86 254 238" xml:space="preserve">
<defs>
</defs>
<path fill="#010101" d="M8.892,40.209L5.928,32.09c7.346-3.351,14.563-5.542,24.229-5.542c18.172,0,28.353,9.279,28.353,26.806
	v40.726h-9.537V84.027c-4.639,6.057-12.372,11.47-24.1,11.47C12.501,95.497,0,88.538,0,74.619c0-14.176,11.599-21.651,28.48-21.651
	c8.506,0,14.563,1.16,20.491,2.835v-2.319c0-11.986-7.346-18.172-19.847-18.172C21.264,35.312,15.078,37.374,8.892,40.209z
	 M10.052,74.233c0,8.505,7.732,13.402,16.754,13.402c12.243,0,22.295-7.475,22.295-18.042v-6.444
	c-4.896-1.417-11.47-2.835-19.589-2.835C17.011,60.314,10.052,65.727,10.052,74.233z"/>
<path fill="#010101" d="M80.549,94.079V0h9.923v94.079H80.549z"/>
<path fill="#010101" d="M148.981,95.497c-12.372,0-20.361-6.701-25.518-14.176V94.08h-9.923V0h9.923v40.854
	c5.413-7.989,13.273-14.82,25.518-14.82c15.98,0,31.832,12.63,31.832,34.667C180.813,82.61,165.092,95.497,148.981,95.497z
	 M147.178,34.926c-12.372,0-24.1,10.311-24.1,25.775c0,15.594,11.728,25.904,24.1,25.904c12.888,0,23.455-9.537,23.455-25.775
	C170.633,44.978,159.808,34.926,147.178,34.926z"/>
<path fill="#010101" d="M202.981,40.209l-2.964-8.119c7.347-3.351,14.563-5.542,24.229-5.542c18.172,0,28.353,9.279,28.353,26.806
	v40.726h-9.536V84.027c-4.64,6.057-12.372,11.47-24.1,11.47c-12.373,0-24.873-6.959-24.873-20.878
	c0-14.176,11.599-21.651,28.481-21.651c8.506,0,14.562,1.16,20.49,2.835v-2.319c0-11.986-7.347-18.172-19.848-18.172
	C215.354,35.312,209.169,37.374,202.981,40.209z M204.143,74.233c0,8.505,7.732,13.402,16.754,13.402
	c12.243,0,22.296-7.475,22.296-18.042v-6.444c-4.896-1.417-11.471-2.835-19.59-2.835C211.102,60.314,204.143,65.727,204.143,74.233z
	"/>
<path fill="#010101" d="M40.466,217.387c-12.372,0-20.362-6.702-25.517-14.177v33.379H5.025V149.34h9.924v13.403
	c5.412-7.99,13.273-14.82,25.517-14.82c15.981,0,31.833,12.629,31.833,34.667C72.299,204.5,56.576,217.387,40.466,217.387z
	 M38.662,156.815c-12.372,0-24.101,10.311-24.101,25.774c0,15.594,11.729,25.904,24.101,25.904c12.888,0,23.456-9.537,23.456-25.775
	C62.118,166.868,51.292,156.815,38.662,156.815z"/>
<path fill="#010101" d="M100.523,215.969h-9.923V149.34h9.923v17.399c4.897-11.083,14.563-19.073,27.193-18.56v10.697h-0.773
	c-14.562,0-26.419,10.438-26.419,30.543L100.523,215.969L100.523,215.969z"/>
<path fill="#010101" d="M143.454,162.099l-2.964-8.118c7.346-3.352,14.562-5.542,24.229-5.542c18.172,0,28.354,9.278,28.354,26.807
	v40.725h-9.536v-10.053c-4.641,6.058-12.372,11.471-24.102,11.471c-12.371,0-24.872-6.96-24.872-20.878
	c0-14.177,11.6-21.65,28.481-21.65c8.506,0,14.562,1.159,20.491,2.835v-2.319c0-11.985-7.348-18.172-19.849-18.172
	C155.826,157.202,149.641,159.264,143.454,162.099z M144.614,196.123c0,8.506,7.731,13.403,16.754,13.403
	c12.242,0,22.296-7.477,22.296-18.043v-6.444c-4.897-1.417-11.472-2.835-19.59-2.835
	C151.573,182.204,144.614,187.617,144.614,196.123z"/>
<path fill="#010101" d="M226.982,197.025c0,8.118,4.512,11.083,11.212,11.083c3.353,0,6.188-0.646,9.666-2.32v8.506
	c-3.479,1.805-7.217,2.836-11.984,2.836c-10.697,0-18.816-5.284-18.816-18.815v-40.21h-9.277v-8.764h9.277v-20.104h9.924v20.104
	h21.137v8.765h-21.137L226.982,197.025L226.982,197.025z"/>
</svg>
