<?xml version="1.0" encoding="utf-8"?>
<!-- Generator: Adobe Illustrator 15.0.0, SVG Export Plug-In  -->
<!DOCTYPE svg PUBLIC "-//W3C//DTD SVG 1.1//EN" "http://www.w3.org/Graphics/SVG/1.1/DTD/svg11.dtd" [
	<!ENTITY ns_flows "http://ns.adobe.com/Flows/1.0/">
]>
<svg version="1.1"
	 xmlns="http://www.w3.org/2000/svg" xmlns:xlink="http://www.w3.org/1999/xlink" xmlns:a="http://ns.adobe.com/AdobeSVGViewerExtensions/3.0/"
	 x="0px" y="0px" width="81px" height="81px" viewBox="-0.154 -0.25 81 81"
	 overflow="visible" enable-background="new -0.154 -0.25 81 81" xml:space="preserve">
<defs>
</defs>
<rect fill="#00AEEF" width="80" height="80"/>
<g id="ARROW_x5F_1_1_">
	
		<image overflow="visible" opacity="0.3" width="116" height="225" xlink:href="C63C8ACD.png"  transform="matrix(0.24 0 0 0.24 27.7588 0.8169)">
	</image>
	<g>
		<g>
			<path fill="#010101" d="M37.281,39.842c0.005-0.672,0.25-1.281,0.642-1.769l0.018-3.215c0.006-1.231,1.01-2.224,2.241-2.218
				s2.225,1.012,2.218,2.242l-0.018,3.215c0.387,0.49,0.625,1.102,0.622,1.775c-0.005,0.674-0.25,1.283-0.641,1.77l-0.039,7.334
				c6.266-1.275,7.852-5.459,7.276-13.592c-0.922-13.006-6.174-31.715-9.263-31.733c-3.088-0.016-8.665,18.927-9.63,31.985
				c-0.591,7.975,0.996,11.99,7.156,13.314l0.039-7.334C37.517,41.127,37.278,40.516,37.281,39.842z"/>
			<path fill="#FFFFFF" d="M42.382,38.098c-0.521-0.66-1.316-1.094-2.224-1.1c-0.906-0.006-1.707,0.422-2.235,1.075
				c-0.392,0.487-0.637,1.097-0.642,1.769c-0.003,0.674,0.235,1.285,0.622,1.775c0.521,0.664,1.317,1.096,2.225,1.102
				c0.907,0.004,1.709-0.42,2.235-1.076c0.391-0.486,0.636-1.096,0.641-1.77C43.007,39.199,42.769,38.588,42.382,38.098z"/>
		</g>
	</g>
</g>
</svg>
